<svg version="1.1" id="Layer_1" xmlns="http://www.w3.org/2000/svg" xmlns:xlink="http://www.w3.org/1999/xlink" x="0px" y="0px"
	 width="2048" height="2048" viewBox="0 0 2048 2048" xml:space="preserve">
<path fill="#389B48" opacity="1.000000" stroke="none" 
	d="
M1189.581909,1361.580078 
	C1159.454956,1394.119385 1129.604004,1426.434570 1099.620972,1458.626831 
	C1097.184082,1461.243286 1096.920166,1463.244385 1098.304688,1466.470215 
	C1109.071777,1491.557739 1119.664307,1516.720337 1130.247070,1541.886719 
	C1133.401733,1549.388794 1135.178467,1557.051880 1132.681030,1565.223145 
	C1127.277710,1582.902100 1107.243652,1590.402588 1090.971191,1580.298584 
	C1085.517822,1576.912476 1080.760864,1572.294678 1076.031250,1567.870483 
	C1038.794312,1533.039307 1002.079224,1497.634033 964.264648,1463.443848 
	C947.141235,1447.961670 948.360840,1420.808716 960.855042,1405.688110 
	C993.543213,1366.128662 1025.694702,1326.125854 1058.076050,1286.312622 
	C1079.733276,1259.684570 1101.419922,1233.080444 1123.081055,1206.455566 
	C1123.899536,1205.449707 1124.590698,1204.340332 1125.709717,1202.758301 
	C1123.887329,1202.035767 1122.455078,1201.386353 1120.971191,1200.891357 
	C1049.143799,1176.930176 977.161865,1153.420288 905.535828,1128.871948 
	C861.362732,1113.732544 830.099121,1084.395264 815.846741,1039.140991 
	C805.732483,1007.026184 808.590149,975.073303 821.825195,944.427063 
	C831.053040,923.059570 841.722717,902.297424 852.176819,881.480042 
	C887.744324,810.654419 923.502686,739.924683 959.179688,669.154053 
	C959.765381,667.992310 960.243958,666.776550 960.930603,665.229980 
	C944.964661,661.347168 929.321594,657.406128 913.611084,653.755310 
	C891.888977,648.707642 870.103455,643.933044 848.379761,638.892029 
	C845.407043,638.202148 843.585815,638.795105 841.496155,641.066162 
	C805.281921,680.422241 768.922974,719.645142 732.716309,759.008118 
	C726.631592,765.623230 721.388977,773.015198 715.276001,779.601562 
	C697.646301,798.596741 676.086792,806.597107 650.695129,799.616882 
	C625.072388,792.573120 610.168030,774.616089 605.473389,748.876282 
	C601.549255,727.360901 609.371460,708.932922 623.554993,692.891296 
	C634.592651,680.407715 645.688354,667.973511 656.585999,655.368408 
	C692.112671,614.275391 727.573181,573.125000 763.033691,531.974792 
	C783.553528,508.162689 809.137878,496.911377 840.668579,501.148102 
	C854.021118,502.942261 867.270020,505.549500 880.529724,507.984802 
	C938.328125,518.600098 996.117065,529.266846 1053.901001,539.960815 
	C1074.804077,543.829346 1094.827271,550.207947 1113.821777,559.993225 
	C1156.154419,581.801392 1198.939209,602.750183 1240.944214,625.165161 
	C1254.446289,632.370300 1266.448975,642.613403 1278.506836,652.255493 
	C1321.967529,687.008850 1365.158325,722.099792 1408.458984,757.053406 
	C1409.466553,757.866821 1410.568237,758.563721 1410.997925,758.868835 
	C1425.461426,744.803711 1440.111572,731.433228 1453.757446,717.106262 
	C1483.061890,686.338989 1511.840576,655.071228 1540.849976,624.022888 
	C1561.643799,601.767517 1593.797363,597.675781 1619.746704,613.950562 
	C1645.340454,630.002380 1655.683838,661.708923 1644.698608,690.618591 
	C1641.293701,699.579102 1636.236816,707.410950 1629.766846,714.618958 
	C1601.718262,745.866882 1574.198120,777.590515 1546.050781,808.748047 
	C1523.265991,833.969421 1500.043213,858.803040 1476.667480,883.479797 
	C1459.996704,901.078308 1439.681641,910.987183 1414.883545,910.171936 
	C1399.450317,909.664490 1385.614380,904.750610 1373.019897,895.803467 
	C1338.394531,871.205872 1303.650269,846.775696 1268.967407,822.259155 
	C1257.434082,814.106445 1245.944092,805.892273 1233.655640,797.152344 
	C1190.905640,864.747986 1148.392090,931.969971 1105.582520,999.659912 
	C1114.964844,1004.165344 1123.931885,1008.486023 1132.911255,1012.780701 
	C1182.620117,1036.555420 1232.264648,1060.465454 1282.067871,1084.040894 
	C1311.728516,1098.081421 1329.957031,1120.626831 1334.408447,1153.341553 
	C1338.363403,1182.408936 1330.396484,1208.128296 1310.501587,1229.853516 
	C1270.327271,1273.724243 1230.055420,1317.505737 1189.581909,1361.580078 
z"/>
<path fill="#389B48" opacity="1.000000" stroke="none" 
	d="
M541.793335,1519.775391 
	C528.449951,1527.025391 515.329468,1533.924561 502.481293,1541.297852 
	C499.709442,1542.888672 497.078613,1545.825073 495.807159,1548.758789 
	C483.960083,1576.095337 472.351562,1603.536377 460.835999,1631.014893 
	C456.570099,1641.194092 450.532440,1649.307861 439.132294,1651.915894 
	C421.735413,1655.895996 405.475769,1643.000000 405.127869,1624.765381 
	C404.253693,1578.951050 403.459991,1533.135132 402.742371,1487.318115 
	C402.575562,1476.669434 402.135315,1465.949951 403.092651,1455.378296 
	C404.194550,1443.210449 410.100647,1433.386475 420.864624,1426.771362 
	C459.734009,1402.884033 498.686584,1379.127319 537.339966,1354.894165 
	C587.003235,1323.758423 636.392517,1292.185669 685.949036,1260.879028 
	C690.885925,1257.760254 694.408325,1253.783813 697.205688,1248.603027 
	C729.163879,1189.416992 761.300354,1130.327271 793.397583,1071.216431 
	C793.865356,1070.354980 794.439392,1069.551270 795.349976,1068.109009 
	C796.485718,1070.139160 797.438904,1071.740723 798.296936,1073.391846 
	C819.915161,1114.990601 853.792236,1142.056763 897.707214,1157.184570 
	C915.171448,1163.200928 932.680969,1169.085449 950.163452,1175.048706 
	C951.224365,1175.410522 952.228760,1175.938110 953.726318,1176.592773 
	C950.245972,1181.437134 946.984131,1186.024658 943.674316,1190.577026 
	C906.844116,1241.236572 869.941772,1291.843750 833.203491,1342.569824 
	C819.079529,1362.071289 801.609558,1377.563599 780.468384,1389.113159 
	C700.979492,1432.538574 621.559509,1476.090210 541.793335,1519.775391 
z"/>
<path fill="#399B4A" opacity="1.000000" stroke="none" 
	d="
M1180.000000,1747.141724 
	C1051.506470,1746.970825 923.510620,1747.205200 795.520325,1746.467651 
	C723.533630,1746.052734 651.545654,1744.441284 579.578369,1742.587646 
	C534.112000,1741.416626 488.679504,1738.875610 443.240356,1736.765869 
	C435.884857,1736.424194 428.573822,1735.124634 421.242218,1734.267822 
	C421.225891,1733.668945 421.209534,1733.070068 421.193207,1732.471313 
	C424.198730,1731.972778 427.187805,1731.198120 430.212280,1731.017700 
	C463.968292,1729.004517 497.705780,1726.298462 531.493713,1725.264526 
	C750.581726,1718.559570 969.735535,1718.478516 1188.894775,1719.503540 
	C1226.057617,1719.677246 1263.218262,1720.336670 1300.379883,1720.770508 
	C1300.995483,1720.777710 1301.611206,1720.771484 1303.180420,1720.771484 
	C1258.760254,1686.524902 1236.092896,1642.562256 1239.683594,1586.832886 
	C1242.422119,1544.327637 1261.395874,1509.657593 1294.467407,1483.019653 
	C1358.857666,1431.155396 1454.163940,1442.289185 1505.008301,1507.777222 
	C1557.541260,1575.440063 1541.252686,1675.177612 1467.175049,1723.004272 
	C1521.771606,1725.619873 1575.377075,1725.401245 1628.501221,1732.114990 
	C1628.524048,1732.897949 1628.546753,1733.680908 1628.569580,1734.463867 
	C1621.304321,1735.257324 1614.057251,1736.439209 1606.770752,1736.779663 
	C1566.658203,1738.652954 1526.551758,1741.071045 1486.414062,1741.911865 
	C1384.450928,1744.047974 1282.472412,1745.446655 1180.000000,1747.141724 
z"/>
<path fill="#389B49" opacity="1.000000" stroke="none" 
	d="
M1202.118042,573.892212 
	C1161.827637,546.763855 1139.890747,509.456573 1139.661621,461.011688 
	C1139.365845,398.484497 1183.124878,345.331787 1244.415161,331.960266 
	C1323.516113,314.703033 1399.450806,370.772339 1406.192749,451.415070 
	C1411.554321,515.548279 1367.526001,575.931763 1304.552979,590.988098 
	C1268.097656,599.704346 1234.247070,593.142273 1202.118042,573.892212 
z"/>
<path fill="#3B994C" opacity="1.000000" stroke="none" 
	d="
M574.534058,928.438477 
	C556.210022,931.434326 538.310242,934.327332 520.410400,937.220398 
	C520.324402,936.838684 520.238403,936.456909 520.152344,936.075134 
	C622.524841,908.007385 724.897339,879.939575 828.248169,851.603577 
	C827.317871,853.756836 826.852173,855.041199 826.229187,856.243958 
	C821.177185,865.998169 815.913574,875.648865 811.122131,885.528809 
	C809.447510,888.981873 807.187378,890.367859 803.604614,890.960938 
	C766.496155,897.102783 729.426453,903.480225 692.306885,909.553345 
	C653.212830,915.949585 614.076233,922.085876 574.534058,928.438477 
z"/>
<path fill="#3A994B" opacity="1.000000" stroke="none" 
	d="
M604.889221,1199.013062 
	C635.334839,1190.965942 665.378479,1182.995972 696.167542,1174.828125 
	C695.724426,1176.275879 695.593994,1177.158691 695.204468,1177.906494 
	C689.821472,1188.238647 684.492493,1198.601318 678.891052,1208.814331 
	C678.103821,1210.249512 676.047119,1211.601440 674.399048,1211.862549 
	C625.907532,1219.546753 577.404053,1227.157104 528.878967,1234.627319 
	C494.991516,1239.844116 461.069916,1244.838989 427.163116,1249.930054 
	C424.012299,1250.403198 420.858429,1250.856079 417.706024,1251.318359 
	C417.605560,1250.841309 417.505127,1250.364258 417.404694,1249.887207 
	C479.765564,1232.954834 542.126404,1216.022461 604.889221,1199.013062 
z"/>
<path fill="#3B994B" opacity="1.000000" stroke="none" 
	d="
M578.914551,1165.842773 
	C566.323547,1167.603638 554.171387,1169.309570 542.019226,1171.015503 
	C541.905762,1170.563477 541.792236,1170.111450 541.678772,1169.659546 
	C603.880920,1151.852417 666.083008,1134.045166 728.285156,1116.238037 
	C728.469421,1116.641602 728.653748,1117.045044 728.838074,1117.448608 
	C723.971741,1126.522583 719.218201,1135.661011 714.117615,1144.601440 
	C713.351318,1145.944702 711.036987,1146.882324 709.312256,1147.131104 
	C666.984802,1153.238281 624.640137,1159.225708 582.299561,1165.241821 
	C581.311584,1165.382080 580.335266,1165.603882 578.914551,1165.842773 
z"/>
<path fill="#3C994D" opacity="1.000000" stroke="none" 
	d="
M684.849182,951.005371 
	C720.814087,940.562195 756.384094,930.204285 793.091187,919.515259 
	C789.698120,928.663208 786.828979,936.730896 783.623413,944.662598 
	C783.171509,945.780579 781.143250,946.734009 779.732361,946.922241 
	C751.511414,950.686707 723.264282,954.255310 695.043030,958.017639 
	C674.823669,960.713257 654.634338,963.634705 634.260376,965.780640 
	C650.991699,960.883972 667.722961,955.987305 684.849182,951.005371 
z"/>
</svg>